HIERARCHY
ROOT Hips
{
	OFFSET 0.000000 0.000000 0.000000
	CHANNELS 6 Xposition Yposition Zposition Xrotation Yrotation Zrotation
	JOINT LeftUpLeg_virtual
	{
		OFFSET 0.000000 0.000000 0.000000
		CHANNELS 3 Xrotation Yrotation Zrotation
		JOINT LeftUpLeg
		{
			OFFSET 10.205400 -3.823500 0.155100
			CHANNELS 3 Xrotation Yrotation Zrotation
			JOINT LeftLeg
			{
				OFFSET 0.708757 -12.982077 0.567790
				CHANNELS 3 Xrotation Yrotation Zrotation
				JOINT LeftFoot
				{
					OFFSET -0.708756 -10.717838 -2.184338
					CHANNELS 3 Xrotation Yrotation Zrotation
					JOINT LeftToeBase
					{
						OFFSET 0.108149 -7.191104 7.560241
						CHANNELS 3 Xrotation Yrotation Zrotation
						JOINT LeftToe_End
						{
							OFFSET 0.070230 0.081724 4.490308
							CHANNELS 3 Xrotation Yrotation Zrotation
							End Site
							{
								OFFSET 0 0 0
							}
						}
					}
				}
			}
		}
	}
	JOINT RightUpLeg_virtual
	{
		OFFSET 0.000000 0.000000 0.000000
		CHANNELS 3 Xrotation Yrotation Zrotation
		JOINT RightUpLeg
		{
			OFFSET -10.205400 -3.823500 0.005500
			CHANNELS 3 Xrotation Yrotation Zrotation
			JOINT RightLeg
			{
				OFFSET -0.708756 -12.982134 0.610632
				CHANNELS 3 Xrotation Yrotation Zrotation
				JOINT RightFoot
				{
					OFFSET 0.708754 -10.717769 -1.945823
					CHANNELS 3 Xrotation Yrotation Zrotation
					JOINT RightToeBase
					{
						OFFSET -0.108140 -7.191069 7.372968
						CHANNELS 3 Xrotation Yrotation Zrotation
						JOINT RightToe_End
						{
							OFFSET -0.070227 0.081735 4.479403
							CHANNELS 3 Xrotation Yrotation Zrotation
							End Site
							{
								OFFSET 0 0 0
							}
						}
					}
				}
			}
		}
	}
	JOINT Spine_virtual
	{
		OFFSET 0.000000 0.000000 0.000000
		CHANNELS 3 Xrotation Yrotation Zrotation
		JOINT Spine
		{
			OFFSET 0.000000 6.876099 0.125700
			CHANNELS 3 Xrotation Yrotation Zrotation
			JOINT Spine1
			{
				OFFSET 0.000000 5.730043 0.104720
				CHANNELS 3 Xrotation Yrotation Zrotation
				JOINT Spine1_split
				{
					OFFSET 0.000000 5.730043 0.104720
					CHANNELS 3 Xrotation Yrotation Zrotation
					JOINT Spine2
					{
						OFFSET 0.000000 5.730043 0.104720
						CHANNELS 3 Xrotation Yrotation Zrotation
						JOINT Neck_virtual
						{
							OFFSET 0.000000 0.000000 0.000000
							CHANNELS 3 Xrotation Yrotation Zrotation
							JOINT Neck
							{
								OFFSET 0.000000 10.314075 0.188496
								CHANNELS 3 Xrotation Yrotation Zrotation
								JOINT Head
								{
									OFFSET 0.000000 7.643700 -2.377400
									CHANNELS 3 Xrotation Yrotation Zrotation
									JOINT HeadTop_End
									{
										OFFSET 0.000000 43.788605 -13.619600
										CHANNELS 3 Xrotation Yrotation Zrotation
										End Site
										{
											OFFSET 0 0 0
										}
									}
								}
							}
						}
						JOINT LeftShoulder_virtual
						{
							OFFSET 0.000000 0.000000 0.000000
							CHANNELS 3 Xrotation Yrotation Zrotation
							JOINT LeftShoulder
							{
								OFFSET 2.196100 4.412489 0.087492
								CHANNELS 3 Xrotation Yrotation Zrotation
								JOINT LeftShoulder_split
								{
									OFFSET 2.196100 4.412489 0.087492
									CHANNELS 3 Xrotation Yrotation Zrotation
									JOINT LeftArm
									{
										OFFSET 8.771219 -2.981674 -0.026999
										CHANNELS 3 Xrotation Yrotation Zrotation
										JOINT LeftForeArm
										{
											OFFSET 8.512804 0.000000 -0.000000
											CHANNELS 3 Xrotation Yrotation Zrotation
											JOINT LeftHand
											{
												OFFSET 18.484802 0.000000 -0.000000
												CHANNELS 3 Xrotation Yrotation Zrotation
												End Site
												{
													OFFSET 0 0 0
												}
											}
										}
									}
								}
							}
						}
						JOINT RightShoulder_virtual
						{
							OFFSET 0.000000 0.000000 0.000000
							CHANNELS 3 Xrotation Yrotation Zrotation
							JOINT RightShoulder
							{
								OFFSET -2.196100 4.412496 0.070690
								CHANNELS 3 Xrotation Yrotation Zrotation
								JOINT RightShoulder_split
								{
									OFFSET -2.196100 4.412496 0.070690
									CHANNELS 3 Xrotation Yrotation Zrotation
									JOINT RightArm
									{
										OFFSET -8.771282 -2.981682 -0.094208
										CHANNELS 3 Xrotation Yrotation Zrotation
										JOINT RightForeArm
										{
											OFFSET -8.494598 0.000000 0.000000
											CHANNELS 3 Xrotation Yrotation Zrotation
											JOINT RightHand
											{
												OFFSET -18.483803 0.000000 0.000001
												CHANNELS 3 Xrotation Yrotation Zrotation
												End Site
												{
													OFFSET 0 0 0
												}
											}
										}
									}
								}
							}
						}
					}
				}
			}
		}
	}
}
MOTION
Frames: 5
Frame Time: 0.03333333
0.785610 27.196316 -0.853017 0.000000 0.000000 0.000000 -5.153730 -48.685387 -0.127883 -38.536474 3.697979 25.886478 65.837034 -7.156799 4.469845 -25.704493 -5.242948 -19.741928 -4.008526 0.052040 1.778898 0.000000 0.000000 0.000000 -5.769942 -47.172025 0.621821 -12.659920 -8.756198 -38.148160 63.238037 2.886550 -4.177637 -39.748361 -16.404477 31.341095 -0.003199 0.393958 0.575514 0.000000 0.000000 0.000000 -5.019261 -44.625147 0.830288 11.448271 7.988862 -1.352961 1.606648 1.453777 -0.770922 0.615786 -0.200304 0.452056 0.000000 0.000000 0.000000 2.660589 1.036393 -0.607329 -1.664240 11.220528 4.203160 6.821595 18.061419 -4.603285 0.000000 0.000000 0.000000 2.891239 0.856088 -0.675900 1.021117 2.071780 -4.738874 -0.194646 -0.528965 -1.375185 -51.429552 0.496711 -49.560935 -173.942379 -74.350871 -169.957537 0.000000 0.000000 0.000000 2.836393 0.964339 -0.748041 3.201942 12.172802 -6.504339 -2.266175 -1.397279 0.840325 -54.213083 27.115243 85.273211 -177.057655 71.758370 175.437247 0.000000 0.000000 0.000000 
0.819430 27.260605 -0.796680 0.000000 0.000000 0.000000 -4.862734 -48.546375 0.174316 -38.096702 3.654765 25.835575 65.930894 -7.590854 4.480844 -25.240530 -5.123154 -19.783187 -3.928950 0.037123 1.687259 0.000000 0.000000 0.000000 -5.744924 -47.107634 0.778525 -12.360379 -9.135328 -38.075870 63.030003 2.543160 -4.103461 -40.151554 -16.821035 30.940313 0.415413 0.385706 0.382810 0.000000 0.000000 0.000000 -4.890123 -44.524992 0.784629 11.366365 8.031065 -1.511405 1.527570 1.387022 -0.725355 0.667685 0.442424 0.763177 0.000000 0.000000 0.000000 2.468587 1.040302 -0.584087 -1.800047 11.468539 4.103123 6.487265 18.316943 -4.582093 0.000000 0.000000 0.000000 2.880249 0.835728 -0.578418 1.058079 1.510504 -4.977764 0.434145 -0.719346 -0.714580 -52.043477 1.809191 -49.835355 -178.946708 -74.742664 -175.046902 0.000000 0.000000 0.000000 2.802771 0.945006 -0.680856 3.142482 12.412731 -6.457774 -2.230575 -1.683422 0.509893 -54.257363 27.174575 84.796846 -177.407620 71.242274 175.850528 0.000000 0.000000 0.000000 
0.844791 27.360601 -0.771492 0.000000 0.000000 0.000000 -4.583381 -48.463498 0.491456 -37.453506 3.743376 25.994319 65.784291 -8.645924 4.356718 -24.956295 -5.073674 -19.940749 -3.897284 -0.001182 1.430957 0.000000 0.000000 0.000000 -5.608393 -47.162367 0.946624 -11.948758 -9.442879 -37.809086 62.384359 2.225962 -4.125388 -40.798523 -17.278910 29.963910 0.301198 0.412003 0.119214 0.000000 0.000000 0.000000 -4.543814 -44.815870 0.920084 11.182749 8.163530 -1.762106 1.452941 1.362871 -0.739799 0.426153 0.446488 0.811381 0.000000 0.000000 0.000000 2.257967 1.134445 -0.625617 -1.829975 11.900196 4.037623 6.324704 18.819377 -4.187966 0.000000 0.000000 0.000000 2.904554 0.915017 -0.518784 0.977590 0.683512 -5.146946 1.003199 0.235555 0.464479 -53.336121 4.151361 -49.410319 177.059745 -73.547880 -179.278641 0.000000 0.000000 0.000000 2.662630 1.036291 -0.653317 3.150057 12.638905 -5.960443 -2.354973 -2.057953 0.184226 -54.524113 27.987528 84.026292 -178.228896 70.479028 176.750201 0.000000 0.000000 0.000000 
0.885178 27.478148 -0.748908 0.000000 0.000000 0.000000 -4.315517 -48.714446 0.738964 -36.589416 4.206708 26.351464 65.341770 -9.999848 4.008479 -25.083687 -4.864968 -20.006994 -3.951042 -0.071984 1.094531 0.000000 0.000000 0.000000 -5.298848 -47.666592 1.134177 -11.802810 -9.544248 -37.453233 61.427955 2.106254 -4.210479 -41.170652 -17.525717 28.508837 -0.360302 0.439964 -0.041701 0.000000 0.000000 0.000000 -4.000629 -45.743249 1.296033 10.849066 8.348819 -2.033316 1.386413 1.410360 -0.819679 0.133177 0.092702 0.722132 0.000000 0.000000 0.000000 2.051214 1.313454 -0.712553 -1.779051 12.394225 4.021448 6.402557 19.779499 -3.650931 0.000000 0.000000 0.000000 2.836350 1.091248 -0.555433 0.875918 -0.047884 -5.049404 1.525907 1.698604 1.551628 -54.426567 6.505100 -48.559203 176.156507 -71.689536 179.311809 0.000000 0.000000 0.000000 2.466602 1.218103 -0.717646 3.175310 12.798168 -5.069892 -2.423178 -2.085481 -0.107496 -54.994354 29.584435 83.203186 -179.071755 69.649147 177.689311 0.000000 0.000000 0.000000 
0.900565 27.594923 -0.650351 0.000000 0.000000 0.000000 -3.987853 -49.741146 0.929491 -35.335485 5.194338 26.907155 64.414401 -11.213248 3.355990 -25.985827 -4.190997 -19.550682 -4.116984 -0.173468 0.789351 0.000000 0.000000 0.000000 -4.725133 -48.907877 1.414161 -12.467120 -9.077479 -37.235855 60.308883 2.444780 -4.301157 -40.719751 -17.293805 27.071863 -1.186926 0.444262 0.001716 0.000000 0.000000 0.000000 -3.242123 -47.312830 1.910390 10.377789 8.530541 -2.245519 1.269061 1.522377 -0.971267 -0.121182 -0.442022 0.494796 0.000000 0.000000 0.000000 1.856597 1.533017 -0.865118 -1.737648 12.885300 4.015500 6.446389 21.254756 -3.208839 0.000000 0.000000 0.000000 2.671032 1.331030 -0.688261 0.753761 -0.327615 -4.499470 1.292100 2.390893 1.715970 -54.159363 8.378193 -46.967413 177.513283 -69.268780 -179.920310 0.000000 0.000000 0.000000 2.240555 1.444681 -0.863137 3.144764 12.777166 -4.074041 -2.559591 -2.191471 -0.300723 -55.869390 32.111492 82.659953 -179.628183 69.100628 178.326964 0.000000 0.000000 0.000000 
